<svg width="606" height="141" viewBox="0 0 606 141" fill="none" 
xmlns="http://www.w3.org/2000/svg">
<path d="M65.94 12.34C58.3334 8.28668 49.2567 6.26001 38.71 
6.26001H0.640015V105.82H38.71C49.25 105.82 58.3267 103.82 65.94 
99.82C73.3869 95.9832 79.5264 90.0211 83.58 82.69C87.7267 75.27 89.8033 
66.4367 89.81 56.19C89.8167 45.9434 87.74 37.06 83.58 29.54C79.5125 22.202 
73.3784 16.2209 65.94 12.34ZM62.86 72.81C60.9086 77.2303 57.6351 80.937 
53.49 83.42C48.9893 85.965 43.8783 87.2306 38.71 
87.08H23.92V25H38.71C43.8884 24.8503 49.0061 26.1453 53.49 28.74C57.63 
31.2605 60.8996 34.9873 62.86 39.42C65.1418 44.7091 66.244 50.4318 66.09 
56.19C66.2349 61.899 65.1327 67.5709 62.86 72.81V72.81Z" fill="currentColor"/>
<path d="M121.72 27.05H99.61V105.82H121.72V27.05Z" fill="currentColor"/>
<path d="M121.72 0.410034H99.61V19.15H121.72V0.410034Z" fill="currentColor"/>
<path d="M182.92 34.44C178.11 27.88 171.29 24.57 162.42 24.57C152.56 24.57 
144.68 28.1067 138.78 35.18C132.88 42.2533 129.927 52.33 129.92 
65.41C129.92 73.71 131.253 80.91 133.92 87.01C136.223 92.6968 140.145 
97.5822 145.2 101.06C150.309 104.409 156.313 106.132 162.42 106C166.429 
106.101 170.4 105.205 173.978 103.393C177.556 101.582 180.628 98.9109 
182.92 95.62V108.78C182.92 114.34 181.653 118.197 179.12 120.35C176.343 
122.573 172.855 123.717 169.3 123.57C165.728 123.691 162.203 122.718 159.2 
120.78C157.843 119.853 156.707 118.639 155.872 117.224C155.037 115.808 
154.524 114.226 154.37 112.59H132.26C133.633 122.15 137.687 129.2 144.42 
133.74C151.153 138.28 159.547 140.55 169.6 140.55C175.867 140.666 182.084 
139.417 187.82 136.89C192.993 134.568 197.373 130.782 200.42 126C203.487 
121.213 205.023 115.357 205.03 108.43V27.05H182.92V34.44ZM179 
82.18C176.433 86.06 172.663 88 167.69 88C165.474 88.0943 163.272 87.6032 
161.306 86.5763C159.34 85.5494 157.679 84.0227 156.49 82.15C153.91 78.2367 
152.62 72.67 152.62 65.45C152.62 58.03 153.91 52.3633 156.49 48.45C157.678 
46.5761 159.339 45.0481 161.305 44.0194C163.271 42.9908 165.473 42.4978 
167.69 42.59C169.92 42.4944 172.137 42.9829 174.121 44.0072C176.105 
45.0315 177.786 46.556 179 48.43C181.627 52.33 182.943 57.9433 182.95 
65.27C182.957 72.5967 181.64 78.2333 179 82.18Z" fill="currentColor"/>
<path d="M238.71 0.410034H216.6V19.15H238.71V0.410034Z" fill="currentColor"/>
<path d="M238.71 27.05H216.6V105.82H238.71V27.05Z" fill="currentColor"/>
<path d="M275.3 8.75H253.19V27.05H243.53V43.89H253.19V80.35C253.19 89.43 
255.243 96.3333 259.35 101.06C263.457 105.787 269.703 108.153 278.09 
108.16C280.738 108.181 283.382 107.964 285.99 107.51C287.834 107.201 
289.647 106.733 291.41 106.11V89.57H287.16C282.28 89.57 279.083 88.5467 
277.57 86.5C276.057 84.4533 275.3 81.4767 275.3 
77.57V43.89H291.41V27.05H275.3V8.75Z" fill="currentColor"/>
<path d="M367.84 86.35V56C367.961 50.3579 366.639 44.7784 364 
39.79C361.353 35.0515 357.385 31.1847 352.58 28.66C347.547 25.9333 341.273 
24.57 333.76 24.57C327.641 24.4346 321.562 25.6038 315.93 28C311.019 
30.1265 306.754 33.506 303.56 37.8C300.33 42.3275 298.268 47.5834 297.56 
53.1H319.67C320.135 50.194 321.54 47.5207 323.67 45.49C325.763 43.5433 
328.763 42.5667 332.67 42.56C336.963 42.56 340.207 43.6833 342.4 
45.93C344.593 48.1767 345.693 51.4933 345.7 55.88V57.88C340 57.94 334.7 
58.16 329.89 58.62C324.24 59.1803 318.682 60.4365 313.34 62.36C307.1 
64.4066 302.433 67.43 299.34 71.43C296.259 75.4614 294.634 80.4171 294.73 
85.49C294.582 89.9374 295.781 94.3258 298.17 98.08C300.443 101.485 303.676 
104.137 307.46 105.7C315.309 108.795 324.003 109.001 331.99 106.28C335.693 
104.973 339.094 102.932 341.99 100.28C343.438 98.957 344.736 97.478 345.86 
95.87C345.86 96.69 345.86 97.58 345.94 98.38C346.075 100.9 346.467 103.4 
347.11 105.84H370C369.332 103.388 368.821 100.897 368.47 98.38C367.976 
94.3899 367.766 90.3698 367.84 86.35V86.35ZM336.84 90.3C334.104 91.9598 
330.96 92.8223 327.76 92.79C324.924 92.9468 322.125 92.0928 319.86 
90.38C318.911 89.618 318.153 88.6458 317.644 87.5403C317.136 86.4348 
316.891 85.2262 316.93 84.01C316.908 82.1254 317.414 80.2722 318.39 
78.66C319.612 76.8311 321.305 75.3662 323.29 74.42C326.323 72.9758 329.561 
72.011 332.89 71.56C337.153 70.9151 341.458 70.5809 345.77 
70.56V73.56C345.816 76.9832 344.983 80.361 343.35 83.37C341.829 86.2268 
339.567 88.6208 336.8 90.3H336.84Z" fill="currentColor"/>
<path d="M443.68 43.89V27.05H378.52V43.89H417.47L376.91 
88.98V105.82H446.02V88.98H403.12L443.68 43.89Z" fill="currentColor"/>
<path d="M508 29.69C502.2 26.27 495.343 24.5633 487.43 24.57C480.337 
24.4174 473.326 26.1056 467.08 29.47C461.221 32.7447 456.499 37.7256 
453.54 43.75C450.36 49.99 448.773 57.5533 448.78 66.44C448.78 75.0266 
450.34 82.4433 453.46 88.69C456.389 94.7249 461.056 99.7464 466.86 
103.11C472.673 106.483 479.53 108.167 487.43 108.16C494.55 108.329 501.591 
106.64 507.86 103.26C513.67 99.9814 518.362 95.0347 521.33 89.06C524.497 
82.86 526.083 75.32 526.09 66.44C526.09 57.8533 524.527 50.4333 521.4 
44.18C518.456 38.1371 513.795 33.0968 508 29.69V29.69ZM499.29 
84.08C497.937 85.961 496.156 87.4932 494.093 88.5501C492.031 89.6069 
489.747 90.1581 487.43 90.1581C485.113 90.1581 482.829 89.6069 480.767 
88.5501C478.704 87.4932 476.923 85.961 475.57 84.08C472.837 80.0333 
471.473 74.1533 471.48 66.44C471.487 58.7266 472.85 52.82 475.57 
48.72C476.91 46.8196 478.686 45.2689 480.75 44.1985C482.814 43.1282 
485.105 42.5694 487.43 42.5694C489.755 42.5694 492.046 43.1282 494.11 
44.1985C496.174 45.2689 497.951 46.8196 499.29 48.72C502.023 52.82 503.39 
58.7266 503.39 66.44C503.39 74.1533 502.03 80.0333 499.31 84.08H499.29Z" 
fill="currentColor"/>
<path d="M602.31 37.23C600.217 33.185 596.951 29.8667 592.94 27.71C588.705 
25.5519 584.002 24.4733 579.25 24.57C574.247 24.4961 569.324 25.8376 
565.05 28.44C561.464 30.7365 558.497 33.8785 556.41 
37.59V27.05H534.3V105.82H556.41V60.58C556.384 58.1765 556.721 55.7829 
557.41 53.48C558.032 51.4011 559.051 49.4621 560.41 47.77C561.72 46.1866 
563.353 44.9012 565.2 44C567.11 43.0632 569.213 42.5871 571.34 
42.61C573.748 42.5304 576.132 43.1151 578.23 44.3C580.127 45.4729 581.572 
47.2525 582.33 49.35C583.281 52.0764 583.725 54.9538 583.64 
57.84V105.84H605.75V53.26C605.75 46.82 604.603 41.4767 602.31 37.23Z" 
fill="currentColor"/>
</svg>
